<svg xmlns="http://www.w3.org/2000/svg" width="24" height="24"><path d="M11.752 19.293a5.581 5.581 0 015.575-5.575c.535 0 1.071.08 1.593.235a.43.43 0 00.55-.41v-8.83c0-.71-.577-1.287-1.286-1.287h-.43v3.002c0 .71-.576 1.287-1.286 1.287a1.284 1.284 0 01-.429-2.494v1.207a.429.429 0 00.858 0V3.426h-2.573v3.002c0 .71-.577 1.287-1.286 1.287a1.284 1.284 0 01-.429-2.494v1.207a.429.429 0 00.857 0V3.426h-2.573v3.002c0 .71-.577 1.287-1.286 1.287a1.284 1.284 0 01-.429-2.494v1.207a.429.429 0 00.858 0V3.426H7.463v3.002c0 .71-.578 1.287-1.287 1.287a1.284 1.284 0 01-.429-2.494v1.207a.429.429 0 00.858 0V3.426H4.46c-.71 0-1.287.577-1.287 1.287v16.296c0 .709.577 1.286 1.287 1.286h7.447a.43.43 0 00.388-.613 5.515 5.515 0 01-.544-2.389zm5.574-4.717a4.722 4.722 0 00-4.717 4.717 4.722 4.722 0 004.717 4.718 4.722 4.722 0 004.717-4.718 4.722 4.722 0 00-4.717-4.717zm1.715 5.146h-1.286v1.287a.429.429 0 01-.858 0v-1.287h-1.286a.429.429 0 010-.858h1.286v-1.286a.429.429 0 01.858 0v1.286h1.286a.429.429 0 010 .858z" fill="#777"/></svg>